<mxfile host="Electron" modified="2023-01-25T21:21:44.162Z" agent="5.0 (Windows NT 10.0; Win64; x64) AppleWebKit/537.36 (KHTML, like Gecko) draw.io/20.8.10 Chrome/106.0.5249.199 Electron/21.3.5 Safari/537.36" etag="UCpekS_6AtesJTy-iaqh" compressed="false" version="20.8.10" type="device">
  <diagram id="ey5kdbNLX-NrgfNBIfCb" name="Page-1">
    <mxGraphModel dx="1912" dy="1179" grid="1" gridSize="10" guides="1" tooltips="1" connect="1" arrows="1" fold="1" page="1" pageScale="1" pageWidth="1654" pageHeight="1169" math="0" shadow="0">
      <root>
        <mxCell id="0" />
        <mxCell id="1" parent="0" />
        <mxCell id="AsiaTMWd7Ymp4geZkF8p-1" value="&lt;p style=&quot;margin:0px;margin-top:4px;margin-left:10px;text-align:left;&quot;&gt;&lt;b&gt;uc&lt;/b&gt;&amp;nbsp;[UseCase] autonomie electrique [autonomie]&lt;/p&gt;" style="html=1;shape=mxgraph.sysml.package;xSize=90;align=left;spacingLeft=10;overflow=fill;recursiveResize=0;labelX=273;movable=1;resizable=1;rotatable=1;deletable=1;editable=1;connectable=1;" parent="1" vertex="1">
          <mxGeometry x="10" y="10" width="1630" height="1150" as="geometry" />
        </mxCell>
      </root>
    </mxGraphModel>
  </diagram>
</mxfile>
